<?xml version="1.0" encoding="UTF-8"?>
<svg id="Layer_1" data-name="Layer 1" xmlns="http://www.w3.org/2000/svg" viewBox="0 0 792 612">
  <defs>
    <style>
      .cls-1 {
        fill: #ffde59;
      }
    </style>
  </defs>
  <rect class="cls-1" x="-105.72" y="-239.05" width="1003.43" height="1090.11"/>
  <g>
    <g>
      <path d="m222.95,381.73c-2.34,2.34-5.44,3.5-8.51,3.5-7.88,0-11.98-5.51-12.02-11.82-.07-6.24,4.01-12.08,12.02-12.08,3.07,0,6.18,1.17,8.51,3.5l-1.24,1.07c-2-2-4.64-2.97-7.28-2.97-6.81,0-10.31,4.81-10.28,10.41.07,5.47,3.54,10.21,10.28,10.21,2.64,0,5.31-1,7.31-2.97l1.2,1.14Z"/>
      <path d="m247.25,375.62l-9.11-13.99v-.03h2.1l7.91,12.28,7.94-12.28h2.1v.03l-9.15,13.99v9.35h-1.8v-9.35Z"/>
      <path d="m292.77,367.98c0,2.4-1.47,4.27-3.81,5.01,2.94.8,4.61,3.17,4.61,5.87,0,4.81-4.47,6.11-8.48,6.11h-9.58v-23.37h9.58c3.94,0,7.68,1.94,7.68,6.38Zm-15.46,4.21h8.01c2.8,0,5.74-.87,5.74-4.21s-3.07-4.84-5.98-4.84h-7.78v9.05Zm0,11.05h7.78c2.94,0,6.71-.7,6.71-4.41-.03-3.64-3.34-4.94-6.48-4.94h-8.01v9.35Z"/>
      <path d="m313.66,372.38h13.69v1.64h-13.69v9.21h14.75v1.74h-16.52v-23.37h16.12v1.7h-14.35v9.08Z"/>
      <path d="m365.06,384.97h-2.37l-8.08-8.85h-6.38v8.85h-1.8v-23.37h10.28c5.07,0,7.64,3.64,7.68,7.28.03,3.8-2.47,7.14-7.58,7.14l8.25,8.95Zm-16.82-10.55h8.28c4.07,0,5.88-2.3,5.91-5.57.03-2.74-1.84-5.58-5.71-5.58h-8.48v11.15Z"/>
      <path d="m398.16,380.56h-12.22l-2,4.41h-4.77l10.48-23.37h4.81l10.48,23.37h-4.81l-1.97-4.41Zm-6.11-14.05l-4.34,9.95h8.68l-4.34-9.95Z"/>
      <path d="m442.22,373.08c.1,5.91-3.5,11.88-11.68,11.88h-9.18v-23.37h9.18c8.01,0,11.58,5.71,11.68,11.48Zm-16.49,7.64h4.81c5.31,0,7.41-3.87,7.31-7.68-.1-3.64-2.24-7.28-7.31-7.28h-4.81v14.95Z"/>
      <path d="m471.49,385.07h-4.57l-9.71-23.47h4.94l7.04,18.19,7.08-18.19h4.94l-9.71,23.47Z"/>
      <path d="m515.34,384.97h-17.49v-23.37h17.49v4.27h-13.12v5.37h12.65v4.11h-12.65v5.27h13.12v4.34Z"/>
      <path d="m548.81,361.57h4.41v23.4h-2.74v.03l-12.28-15.79v15.76h-4.41v-23.37h3.57l11.45,14.49v-14.52Z"/>
      <path d="m577.31,365.61h-7.41v-4.01h19.23v4.01h-7.41v19.36h-4.41v-19.36Z"/>
    </g>
    <g>
      <path d="m233.77,339.25h-31.35l5.35-25.23h31.35l-5.35,25.23Z"/>
      <polygon points="331.97 341.38 284.6 226.76 260.37 226.76 307.13 341.38 331.97 341.38"/>
      <path d="m446.34,339.5h-65.25c-6.29,0-11.47-.29-15.55-.89-4.08-.59-7.31-1.53-9.69-2.8-2.38-1.27-4.04-3.01-4.97-5.22-.94-2.21-1.4-5.01-1.4-8.41,0-3.91.59-8.49,1.78-13.76l10.2-47.92c1.53-6.63,3.27-11.98,5.23-16.06,1.95-4.08,4.59-7.22,7.9-9.43,3.31-2.21,7.35-3.7,12.11-4.46,4.75-.76,10.7-1.15,17.84-1.15h65.25l-5.61,26.51h-53.52c-3.91,0-7.01.17-9.3.51-2.29.34-4.12,1.06-5.48,2.17-1.36,1.11-2.42,2.68-3.18,4.72-.77,2.04-1.49,4.68-2.17,7.9l-5.61,26.51c-.85,4.25-1.27,7.05-1.27,8.41,0,2.89.98,4.76,2.93,5.61,1.95.85,5.9,1.27,11.85,1.27h53.52l-5.61,26.51Z"/>
      <path d="m570.97,339.5h-81.05c-5.95,0-10.92-.26-14.91-.76-3.99-.51-7.22-1.4-9.69-2.68-2.47-1.27-4.25-3.02-5.35-5.23-1.11-2.21-1.66-5.1-1.66-8.67,0-3.91.59-8.49,1.78-13.76l1.27-6.12c1.53-6.63,3.23-11.98,5.1-16.06,1.87-4.08,4.42-7.22,7.65-9.43,3.23-2.21,7.26-3.7,12.11-4.46,4.84-.76,10.92-1.15,18.22-1.15h36.45l-5.61,26.51h-33.9c-3.06,0-5.52.98-7.39,2.93-1.87,1.96-2.8,4.12-2.8,6.5,0,3.91,2.29,5.86,6.88,5.86h47.15l8.92-41.8c.85-4.24,1.27-7.05,1.27-8.41,0-2.89-.98-4.76-2.93-5.61-1.96-.85-5.91-1.27-11.85-1.27h-64.23l5.61-26.51h75.95c5.95,0,10.92.25,14.91.76,3.99.51,7.22,1.4,9.69,2.68,2.46,1.27,4.25,3.02,5.35,5.23,1.1,2.21,1.66,5.1,1.66,8.67,0,3.91-.6,8.5-1.78,13.76l-16.82,79.01Z"/>
    </g>
  </g>
</svg>